<svg id="Layer_1" data-name="Layer 1" xmlns="http://www.w3.org/2000/svg" viewBox="0 0 1717.26 1717.26"><defs><style>.cls-1{font-size:148px;fill:#e5e5e5;font-family:Syncopate-Bold, Syncopate;font-weight:700;}</style></defs><title>content001_songjimin_portfolio</title><text class="cls-1" transform="translate(379.72 297.57) rotate(-35.67)">s</text><text class="cls-1" transform="translate(477.11 225.63) rotate(-25.18)">o</text><text class="cls-1" transform="matrix(0.97, -0.24, 0.24, 0.97, 611.3, 162.09)">n</text><text class="cls-1" transform="translate(754.73 127.33) rotate(-2.4)">g</text><text class="cls-1" transform="translate(896.15 122.8) rotate(6.83)">j</text><text class="cls-1" transform="matrix(0.97, 0.22, -0.22, 0.97, 994.96, 135.67)">i</text><text class="cls-1" transform="matrix(0.92, 0.39, -0.39, 0.92, 1049.58, 141.15)">m</text><text class="cls-1" transform="matrix(0.84, 0.54, -0.54, 0.84, 1233.31, 225.51)">i</text><text class="cls-1" transform="matrix(0.76, 0.65, -0.65, 0.76, 1281.23, 252.43)">n</text><text class="cls-1" transform="translate(1391.69 351.83) rotate(48.59)"> </text><text class="cls-1" transform="matrix(0.56, 0.83, -0.83, 0.56, 1428.59, 389.74)">p</text><text class="cls-1" transform="matrix(0.4, 0.92, -0.92, 0.4, 1502.71, 496.07)">o</text><text class="cls-1" transform="matrix(0.23, 0.97, -0.97, 0.23, 1560.52, 633.19)">r</text><text class="cls-1" transform="matrix(0.09, 1, -1, 0.09, 1585.58, 735.07)">t</text><text class="cls-1" transform="translate(1596.29 846.49) rotate(93.98)">f</text><text class="cls-1" transform="translate(1589.22 970.43) rotate(104.6)">o</text><text class="cls-1" transform="matrix(-0.42, 0.91, -0.91, -0.42, 1550.7, 1114.06)">l</text><text class="cls-1" transform="translate(1499.25 1220.37) rotate(121.76)">i</text><text class="cls-1" transform="translate(1473.34 1268.86) rotate(129.69)">o</text><text class="cls-1" transform="translate(1375.5 1381.92) rotate(137.51)"> </text><text class="cls-1" transform="translate(1337.96 1419.33) rotate(144.29)">s</text><text class="cls-1" transform="translate(1240.63 1491.34) rotate(154.78)">o</text><text class="cls-1" transform="translate(1106.5 1554.98) rotate(166.35)">n</text><text class="cls-1" transform="matrix(-1, 0.04, -0.04, -1, 963.1, 1589.85)">g</text><text class="cls-1" transform="matrix(-0.99, -0.12, 0.12, -0.99, 821.69, 1594.49)">j</text><text class="cls-1" transform="matrix(-0.97, -0.22, 0.22, -0.97, 722.84, 1581.69)">i</text><text class="cls-1" transform="translate(668.22 1576.26) rotate(-157.12)">m</text><text class="cls-1" transform="matrix(-0.84, -0.54, 0.54, -0.84, 484.45, 1492.05)">i</text><text class="cls-1" transform="matrix(-0.76, -0.65, 0.65, -0.76, 436.48, 1465.14)">n</text><text class="cls-1" transform="matrix(-0.66, -0.75, 0.75, -0.66, 325.98, 1365.85)"> </text><text class="cls-1" transform="translate(289.04 1327.97) rotate(-124.34)">p</text><text class="cls-1" transform="translate(214.82 1221.68) rotate(-113.51)">o</text><text class="cls-1" transform="translate(156.91 1084.61) rotate(-103.59)">r</text><text class="cls-1" transform="translate(131.77 982.77) rotate(-95.13)">t</text><text class="cls-1" transform="translate(120.98 871.35) rotate(-86.06)">f</text><text class="cls-1" transform="translate(127.96 747.4) rotate(-75.45)">o</text><text class="cls-1" transform="translate(166.35 603.76) rotate(-65.05)">l</text><text class="cls-1" transform="translate(217.73 497.37) rotate(-58.28)">i</text><text class="cls-1" transform="translate(243.6 448.88) rotate(-50.36)">o</text></svg>